<svg width="32" height="32" viewBox="0 0 32 32" fill="none" xmlns="http://www.w3.org/2000/svg">
<ellipse cx="16.4" cy="16.4001" rx="11.6" ry="10.8" fill="white"/>
<path fill-rule="evenodd" clip-rule="evenodd" d="M32 16C32 24.8365 24.8365 32 16 32C7.16344 32 0 24.8365 0 16C0 7.16344 7.16344 0 16 0C24.8365 0 32 7.16344 32 16ZM16.5733 11.8119C15.0172 12.4592 11.9069 13.7989 7.24255 15.8311C6.48513 16.1323 6.08837 16.4269 6.05225 16.7151C5.9912 17.202 6.60097 17.3937 7.43132 17.6548C7.54427 17.6904 7.66131 17.7272 7.78128 17.7661C8.59821 18.0317 9.69712 18.3424 10.2684 18.3547C10.7866 18.3659 11.365 18.1523 12.0035 17.7137C16.3616 14.772 18.6112 13.2851 18.7524 13.253C18.8521 13.2304 18.9901 13.202 19.0837 13.2851C19.1772 13.3683 19.1681 13.5257 19.1581 13.568C19.0977 13.8255 16.7041 16.0508 15.4655 17.2024C15.0793 17.5613 14.8055 17.816 14.7495 17.8741C14.624 18.0045 14.4961 18.1277 14.3733 18.2461C13.6144 18.9777 13.0452 19.5264 14.4048 20.4224C15.0583 20.8529 15.5811 21.2089 16.1027 21.5641C16.6723 21.9521 17.2404 22.3391 17.9755 22.8209C18.1628 22.9437 18.3416 23.0712 18.5159 23.1953C19.1788 23.668 19.7744 24.0925 20.5101 24.0248C20.9377 23.9855 21.3793 23.5835 21.6036 22.3845C22.1336 19.5509 23.1755 13.4113 23.4163 10.8813C23.4375 10.6596 23.4109 10.376 23.3896 10.2514C23.3683 10.1269 23.3237 9.94948 23.1619 9.81813C22.9701 9.66259 22.6743 9.62979 22.5419 9.63211C21.94 9.64272 21.0168 9.96376 16.5733 11.8119Z" fill="black"/>
</svg>
